# AST/ASF file generated using VICON BodyLanguage
# -----------------------------------------------
:version 1.10
:name VICON
:units
  mass 1.0
  length 0.45
  angle deg
:documentation
   .ast/.asf automatically generated from VICON data using
   VICON BodyBuilder and BodyLanguage model FoxedUp or BRILLIANT.MOD
:root
   order TX TY TZ RX RY RZ
   axis XYZ
   position 0 0 0  
   orientation 0 0 0 
:bonedata
  begin
     id 1 
     name lhipjoint
     direction 0.643824 -0.71708 0.266994 
     length 2.52133 
     axis 0 0 0  XYZ
  end
  begin
     id 2 
     name lfemur
     direction 0.34202 -0.939693 0  
     length 7.51824  
     axis 0 0 20  XYZ
    dof rx ry rz
    limits (-160.0 20.0)
           (-70.0 70.0)
           (-60.0 70.0)
  end
  begin
     id 3 
     name ltibia
     direction 0.34202 -0.939693 0   
     length 7.3685   
     axis 0 0 20   XYZ
    dof rx
    limits (-10.0 170.0)
  end
  begin
     id 4 
     name lfoot
     direction 0.105419 -0.289636 0.951314   
     length 2.20972   
     axis -90 7.62852e-016 20   XYZ
    dof rx rz
    limits (-45.0 90.0)
           (-70.0 20.0)
  end
  begin
     id 5 
     name ltoes
     direction 1.53549e-011 -4.21833e-011 1   
     length 1.10139   
     axis -90 7.62852e-016 20   XYZ
    dof rx
    limits (-90.0 20.0)
  end
  begin
     id 6 
     name rhipjoint
     direction -0.608823 -0.743445 0.276811   
     length 2.43192  
     axis 0 0 0  XYZ 
  end
  begin
     id 7 
     name rfemur
     direction -0.34202 -0.939693 0   
     length 7.69715   
     axis 0 0 -20   XYZ
    dof rx ry rz
    limits (-160.0 20.0)
           (-70.0 70.0)
           (-70.0 60.0)
  end
  begin
     id 8 
     name rtibia
     direction -0.34202 -0.939693 0   
     length 7.44924   
     axis 0 0 -20   XYZ
    dof rx
    limits (-10.0 170.0)
 end
 begin
     id 9 
     name rfoot
     direction -0.103614 -0.284677 0.953007   
     length 2.22623  
     axis -90 -7.62852e-016 -20   XYZ
    dof rx rz
    limits (-45.0 90.0)
           (-20.0 70.0)
  end
  begin
     id 10 
     name rtoes
     direction -1.53537e-011 -4.22026e-011 1   
     length 1.11   
     axis -90 -7.62852e-016 -20   XYZ
    dof rx
    limits (-90.0 20.0)
  end
  begin
     id 11 
     name lowerback
     direction -0.0101212 0.99662 -0.0815298   
     length 2.08277   
     axis 0 0 0   XYZ
    dof rx ry rz
    limits (-20.0 45.0)
           (-30.0 30.0)
           (-30.0 30.0)
  end
  begin
     id 12 
     name upperback
     direction 0.024314 0.999591 -0.0150645   
     length 2.08524   
     axis 0 0 0   XYZ
    dof rx ry rz
    limits (-20.0 45.0)
           (-30.0 30.0)
           (-30.0 30.0)
  end
  begin
     id 13 
     name thorax
     direction 0.0285959 0.999323 0.0231357   
     length 2.09645   
     axis 0 0 0   XYZ
    dof rx ry rz
    limits (-20.0 45.0)
           (-30.0 30.0)
           (-30.0 30.0)
  end
  begin
     id 14 
     name lowerneck
     direction -0.065512 0.979301 0.191515   
     length 1.63798   
     axis 0 0 0   XYZ
    dof rx ry rz
    limits (-20.0 45.0)
           (-30.0 30.0)
           (-30.0 30.0)
  end
  begin
     id 15 
     name upperneck
     direction 0.0498479 0.98191 -0.182667   
     length 1.68731   
     axis 0 0 0   XYZ
    dof rx ry rz
    limits (-20.0 45.0)
           (-30.0 30.0)
           (-30.0 30.0)
  end
  begin
     id 16
     name head
     direction 0.0230358 0.996257 -0.0833175  
     length 1.69785  
     axis 0 0 0   XYZ
    dof rx ry rz
    limits (-20.0 45.0)
           (-30.0 30.0)
           (-30.0 30.0)
  end
  begin
     id 17 
     name lclavicle
     direction 0.967963 0.201165 -0.150269  
     length 3.63976  
     axis 0 0 0   XYZ
    dof ry rz
    limits (-20.0 10.0)
           (0.0 20.0)
  end
  begin
     id 18 
     name lhumerus
     direction 1 -4.48954e-011 -2.92837e-028   
     length 5.32462   
     axis 180 -30 -90   XYZ
    dof rx ry rz
    limits (-60.0 90.0)
           (-90.0 90.0)
           (-90.0 90.0)
  end
  begin
     id 19
     name lradius
     direction 1 -4.48958e-011 -6.39511e-027   
     length 3.48402   
     axis 180 -30 -90   XYZ
    dof rx
    limits (-10.0 170.0)
  end
  begin
     id 20
     name lwrist
     direction 1 -4.48975e-011 -1.1413e-026   
     length 1.74201   
     axis 6.88575e-015 90 90   XYZ
    dof ry
    limits (-180.0 0.0)
 end
  begin
     id 21 
     name lhand
     direction 1 -4.48899e-011 -2.28192e-026   
     length 0.572476   
     axis 1.45643e-014 90 90   XYZ
    dof rx rz
    limits (-90.0 90.0)
           (-45.0 45.0)
  end
  begin
     id 22 
     name lfingers
     direction 1 -4.49155e-011 -4.5684e-026   
     length 0.461545   
     axis 2.91283e-014 90 90   XYZ
    dof rx
    limits (0.0 90.0)
  end
  begin
     id 23
     name lthumb
     direction 0.707107 -6.34943e-011 0.707107   
     length 0.662688   
     axis -90 45 -2.25915e-014   XYZ
    dof rx rz
    limits (-45.0 45.0)
           (-45.0 45.0)
  end
  begin
     id 24 
     name rclavicle
     direction -0.964103 0.264019 -0.0282629   
     length 3.54491  
     axis 0 0 0   XYZ 
    dof ry rz
    limits (-10.0 20.0)
           (-20.0 0.0)
  end
  begin
     id 25 
     name rhumerus
     direction -1 -4.48964e-011 -2.45032e-027  
     length 5.33589   
     axis 180 30 90   XYZ
    dof rx ry rz
    limits (-90.0 60.0)
           (-90.0 90.0)
           (-90.0 90.0)
  end
  begin
     id 26 
     name rradius
     direction -1 -4.48987e-011 -1.55093e-027   
     length 3.64134   
     axis 180 30 90   XYZ
    dof rx
    limits (-10.0 170.0)
  end
  begin
     id 27 
     name rwrist
     direction -1 -4.4897e-011 -1.14128e-026   
     length 1.82067   
     axis 6.88575e-015 -90 -90   XYZ
    dof ry
    limits (-180.0 0.0)
  end
  begin
     id 28
     name rhand
     direction -1 -4.49021e-011 -2.28301e-026   
     length 0.734811   
     axis 1.45643e-014 -90 -90   XYZ
    dof rx rz
    limits (-90.0 90.0)
           (-45.0 45.0)
  end
  begin
     id 29
     name rfingers
     direction -1 -4.48862e-011 -4.56319e-026   
     length 0.592424   
     axis 2.91283e-014 -90 -90   XYZ
    dof rx
    limits (0.0 90.0)
  end
  begin
     id 30
     name rthumb
     direction -0.707107 -6.34978e-011 0.707107   
     length 0.850605   
     axis -90 -45 2.25915e-014   XYZ
    dof rx rz
    limits (-45.0 45.0)
           (-45.0 45.0)
  end
:hierarchy
  begin
    root lhipjoint rhipjoint lowerback
    lhipjoint lfemur
    lfemur ltibia
    ltibia lfoot
    lfoot ltoes
    rhipjoint rfemur
    rfemur rtibia
    rtibia rfoot
    rfoot rtoes
    lowerback upperback
    upperback thorax
    thorax lowerneck lclavicle rclavicle
    lowerneck upperneck
    upperneck head
    lclavicle lhumerus
    lhumerus lradius
    lradius lwrist
    lwrist lhand lthumb
    lhand lfingers
    rclavicle rhumerus
    rhumerus rradius
    rradius rwrist
    rwrist rhand rthumb
    rhand rfingers
  end

#!OML:ASF F:\VICON\USERDATA\INSTALL\rory3\rory3.ASF
:FULLY-SPECIFIED
:DEGREES
66
root -6.95498 17.2574 -0.496903 14.4634 49.2958 5.49075
lowerback 4.92554 -1.99912 -2.47746
upperback 2.0973 -2.69599 4.02335
thorax -0.285297 -1.3697 5.69174
lowerneck -10.2857 2.91008 -8.45975
upperneck 41.9795 7.32788 1.99411
head 16.5154 2.35469 3.69044
rclavicle -7.79236e-014 0
rhumerus -36.4527 -13.1758 -67.7402
rradius 38.2764
rwrist 18.6773
rhand -24.1828 3.04767
rfingers 7.12502
rthumb 2.30086 -26.9197
lclavicle -7.79236e-014 0
lhumerus -31.5342 14.7528 85.2781
lradius 27.9374
lwrist -8.78926
lhand -13.0476 25.5751
lfingers 7.12502
lthumb 13.0473 55.147
rfemur -43.1138 -6.27057 20.8098
rtibia 41.7705
rfoot -10.491 -10.7687
rtoes 19.9821
lfemur -2.92536 1.44341 -30.61
ltibia 21.3465
lfoot -22.2921 9.03304
ltoes -12.3296
67
root -6.8789 17.2526 -0.444381 14.3476 49.0198 5.23128
lowerback 4.89171 -1.98082 -2.16596
upperback 2.09691 -2.65418 4.14909
thorax -0.280419 -1.34653 5.64305
lowerneck -10.233 2.95343 -8.52626
upperneck 41.9722 7.41337 1.96169
head 16.4926 2.37717 3.69716
rclavicle -4.37326e-015 -3.18055e-015
rhumerus -36.3624 -12.7889 -67.6789
rradius 38.3901
rwrist 18.5251
rhand -23.9771 3.2376
rfingers 7.12502
rthumb 2.49945 -26.7275
lclavicle -4.37326e-015 -3.18055e-015
lhumerus -31.9941 13.738 85.7094
lradius 28.8975
lwrist -7.63975
lhand -13.5627 26.2771
lfingers 7.12502
lthumb 12.5507 55.8802
rfemur -43.1607 -6.36235 21.0466
rtibia 42.163
rfoot -10.638 -10.3387
rtoes 19.5078
lfemur -2.76424 1.17269 -30.6177
ltibia 21.4785
lfoot -22.0575 9.7239
ltoes -13.4087
68
root -6.80212 17.2452 -0.390938 14.3096 48.663 5.1954
lowerback 4.88084 -1.89754 -2.05541
upperback 2.24287 -2.53719 4.27497
thorax -0.135884 -1.29216 5.70364
lowerneck -10.5145 2.9251 -8.71018
upperneck 42.044 7.45447 1.96824
head 16.5938 2.3559 3.75508
rclavicle 4.25399e-014 6.20208e-014
rhumerus -36.0788 -12.5026 -67.5726
rradius 38.5591
rwrist 18.3698
rhand -23.9456 3.4301
rfingers 7.12502
rthumb 2.52989 -26.5346
lclavicle 4.25399e-014 6.20208e-014
lhumerus -31.9617 13.4045 86.1338
lradius 29.4064
lwrist -7.24613
lhand -14.0888 26.6366
lfingers 7.12502
lthumb 12.0435 56.2701
rfemur -43.1077 -6.65978 21.2054
rtibia 42.4993
rfoot -10.568 -9.72101
rtoes 18.5387
lfemur -2.51563 0.967685 -30.788
ltibia 21.6914
lfoot -21.8948 10.319
ltoes -14.0819
69
root -6.72904 17.241 -0.33808 14.2252 48.3181 5.17872
lowerback 4.9937 -1.83117 -2.01629
upperback 2.38717 -2.4452 4.42852
thorax -0.0546015 -1.24952 5.84076
lowerneck -10.7262 2.89969 -8.93306
upperneck 42.045 7.50935 1.93776
head 16.6395 2.33409 3.79803
rclavicle 3.29983e-014 7.95139e-015
rhumerus -35.7461 -12.17 -67.4497
rradius 38.6636
rwrist 18.2337
rhand -24.0143 3.52232
rfingers 7.12502
rthumb 2.46359 -26.4432
lclavicle 3.29983e-014 7.95139e-015
lhumerus -31.864 13.4718 86.4526
lradius 29.7247
lwrist -7.09032
lhand -14.2415 26.1508
lfingers 7.12502
lthumb 11.8962 55.7928
rfemur -42.9415 -6.87655 21.2911
rtibia 42.7855
rfoot -10.6106 -9.05056
rtoes 18.5622
lfemur -2.26641 0.818946 -30.9546
ltibia 22.0126
lfoot -21.7253 10.867
ltoes -15.07
70
root -6.65848 17.245 -0.28268 14.1161 48.059 5.05567
lowerback 5.09136 -1.79809 -1.89115
upperback 2.43171 -2.39321 4.52462
thorax -0.0700725 -1.22252 5.87137
lowerneck -10.6078 2.91534 -8.92811
upperneck 41.947 7.5488 1.81826
head 16.5631 2.3424 3.7391
rclavicle -2.54444e-014 -1.90833e-014
rhumerus -35.5482 -12.0391 -67.4049
rradius 38.6934
rwrist 18.2385
rhand -23.8098 3.45912
rfingers 7.12502
rthumb 2.66107 -26.504
lclavicle -2.54444e-014 -1.90833e-014
lhumerus -31.9837 13.256 86.6185
lradius 30.1612
lwrist -6.92484
lhand -14.0256 25.5619
lfingers 7.12502
lthumb 12.1044 55.1918
rfemur -42.7797 -6.83633 21.3303
rtibia 43.0328
rfoot -10.831 -8.69776
rtoes 18.9841
lfemur -2.17881 0.545016 -31.0054
ltibia 22.5022
lfoot -21.5325 11.3162
ltoes -15.7469
71
root -6.58939 17.2508 -0.224861 14.0593 47.7993 4.94911
lowerback 5.13636 -1.75243 -1.77272
upperback 2.44827 -2.32561 4.57181
thorax -0.0888404 -1.18726 5.8519
lowerneck -10.41 2.91599 -8.72518
upperneck 41.9036 7.53686 1.63289
head 16.5137 2.35034 3.60982
rclavicle 2.3059e-014 2.38542e-014
rhumerus -35.4332 -11.856 -67.4388
rradius 38.7566
rwrist 18.2128
rhand -23.6302 3.42651
rfingers 7.12502
rthumb 2.83447 -26.5344
lclavicle 2.3059e-014 2.38542e-014
lhumerus -32.1093 12.8888 86.7207
lradius 30.5252
lwrist -6.78344
lhand -13.8923 25.5092
lfingers 7.12502
lthumb 12.2329 55.1315
rfemur -42.6407 -6.72203 21.3081
rtibia 43.2209
rfoot -11.0153 -8.37268
rtoes 19.0103
lfemur -2.28453 0.38422 -31.0494
ltibia 23.2466
lfoot -21.3671 11.6634
ltoes -16.3827
72
root -6.52436 17.2578 -0.171311 14.1485 47.5214 4.92836
lowerback 5.14711 -1.67655 -1.78278
upperback 2.44069 -2.22281 4.6782
thorax -0.109365 -1.13557 5.96611
lowerneck -10.3027 2.87246 -8.70697
upperneck 41.9621 7.47752 1.58782
head 16.5288 2.32315 3.57732
rclavicle -4.21423e-014 1.27222e-014
rhumerus -35.2229 -11.7043 -67.3302
rradius 38.7568
rwrist 18.2215
rhand -23.5673 3.48033
rfingers 7.12502
rthumb 2.89523 -26.4798
lclavicle -4.21423e-014 1.27222e-014
lhumerus -32.164 12.2512 87.0432
lradius 30.9095
lwrist -6.3907
lhand -13.6518 25.8212
lfingers 7.12502
lthumb 12.4648 55.4295
rfemur -42.5771 -6.71628 21.2898
rtibia 43.3441
rfoot -11.1026 -7.96186
rtoes 19.055
lfemur -2.62085 0.176076 -31.1606
ltibia 24.2484
lfoot -21.2324 11.9699
ltoes -17.0026
73
root -6.46478 17.263 -0.122743 14.3479 47.2756 4.94632
lowerback 5.18234 -1.61055 -1.82392
upperback 2.41456 -2.13399 4.78568
thorax -0.160178 -1.09026 6.10129
lowerneck -10.2493 2.81769 -8.6499
upperneck 42.0082 7.41926 1.48139
head 16.5571 2.29277 3.51302
rclavicle 9.14409e-014 1.59028e-014
rhumerus -34.9374 -11.6758 -67.2263
rradius 38.7247
rwrist 18.2558
rhand -23.5806 3.54491
rfingers 7.12502
rthumb 2.88244 -26.4154
lclavicle 9.14409e-014 1.59028e-014
lhumerus -32.191 11.8192 87.2858
lradius 31.2713
lwrist -6.30811
lhand -13.5052 25.5408
lfingers 7.12502
lthumb 12.6061 55.1404
rfemur -42.5594 -6.53802 21.2259
rtibia 43.403
rfoot -11.2461 -7.80594
rtoes 19.3844
lfemur -3.19873 0.0327463 -31.2756
ltibia 25.491
lfoot -21.045 12.1359
ltoes -17.7851
74
root -6.39981 17.2707 -0.0723089 14.4395 47.0797 4.90724
lowerback 5.15203 -1.58935 -1.75139
upperback 2.47688 -2.10161 4.88329
thorax -0.0814435 -1.07601 6.1593
lowerneck -10.2237 2.78058 -8.60923
upperneck 42.0523 7.3905 1.38288
head 16.5878 2.2718 3.46002
rclavicle -5.04913e-014 1.43125e-014
rhumerus -34.5392 -11.7293 -67.1826
rradius 38.702
rwrist 18.476
rhand -23.5139 3.54226
rfingers 7.12502
rthumb 2.94681 -26.4171
lclavicle -5.04913e-014 1.43125e-014
lhumerus -32.0407 11.7098 87.4106
lradius 31.5659
lwrist -6.75375
lhand -12.9621 26.0675
lfingers 7.12502
lthumb 13.1297 55.6342
rfemur -42.4151 -6.41688 21.207
rtibia 43.4178
rfoot -11.4635 -7.69464
rtoes 19.7174
lfemur -3.82518 0.0246796 -31.3175
ltibia 26.93
lfoot -20.5778 12.2238
ltoes -19.656
75
root -6.33426 17.2849 -0.0197819 14.3123 46.9244 4.79062
lowerback 5.24852 -1.6063 -1.62039
upperback 2.60116 -2.11668 4.98743
thorax -0.00557355 -1.08545 6.19635
lowerneck -10.2473 2.76414 -8.71238
upperneck 42.0685 7.38442 1.40008
head 16.5987 2.25286 3.48603
rclavicle 1.98785e-014 -5.56597e-014
rhumerus -34.0742 -11.6833 -67.2014
rradius 38.8412
rwrist 18.3066
rhand -22.8872 3.1846
rfingers 7.12502
rthumb 3.55201 -26.7656
lclavicle 1.98785e-014 -5.56597e-014
lhumerus -31.8415 11.5509 87.5256
lradius 31.8425
lwrist -7.14944
lhand -12.3191 26.6521
lfingers 7.12502
lthumb 13.7495 56.1778
rfemur -42.0442 -6.36517 21.2633
rtibia 43.415
rfoot -11.7119 -7.53377
rtoes 19.6558
lfemur -4.33866 0.12424 -31.2504
ltibia 28.4861
lfoot -20.1446 12.0202
ltoes -20.6775
76
root -6.26949 17.2978 0.0333445 14.1036 46.7363 4.65032
lowerback 5.41781 -1.59585 -1.42025
upperback 2.72744 -2.09174 5.02799
thorax 0.0216357 -1.07253 6.12711
lowerneck -10.2646 2.74872 -8.6593
upperneck 42.104 7.36108 1.3654
head 16.6292 2.24303 3.46053
rclavicle -3.10104e-014 2.22639e-014
rhumerus -33.7289 -11.7087 -67.2855
rradius 39.1063
rwrist 17.8325
rhand -22.2262 2.81272
rfingers 7.12502
rthumb 4.19033 -27.1258
lclavicle -3.10104e-014 2.22639e-014
lhumerus -31.6923 11.069 87.6369
lradius 31.9482
lwrist -7.04063
lhand -12.4837 25.4518
lfingers 7.12502
lthumb 13.5909 54.9882
rfemur -41.6108 -6.26871 21.323
rtibia 43.3861
rfoot -11.9675 -7.38226
rtoes 18.9951
lfemur -4.88514 0.365636 -31.1666
ltibia 30.1474
lfoot -19.4343 11.7839
ltoes -21.6998
77
root -6.20329 17.3049 0.0852411 14.1221 46.5058 4.72515
lowerback 5.55916 -1.59576 -1.36674
upperback 2.76324 -2.08775 5.00873
thorax -0.0234108 -1.06925 6.08024
lowerneck -10.1903 2.78544 -8.522
upperneck 42.2429 7.40671 1.3142
head 16.6939 2.27094 3.42513
rclavicle 7.95139e-015 1.27222e-014
rhumerus -33.626 -11.6379 -67.411
rradius 39.3644
rwrist 17.6692
rhand -22.165 2.87008
rfingers 7.12502
rthumb 4.24945 -27.0673
lclavicle 7.95139e-015 1.27222e-014
lhumerus -31.6948 10.4512 87.7206
lradius 32.1626
lwrist -6.85984
lhand -12.714 25.0028
lfingers 7.12502
lthumb 13.3689 54.5539
rfemur -41.2801 -6.19859 21.2238
rtibia 43.33
rfoot -12.0918 -7.3176
rtoes 17.9706
lfemur -5.55093 0.632023 -31.2321
ltibia 31.9426
lfoot -18.5264 11.3546
ltoes -22.3941
78
root -6.13713 17.322 0.137295 14.0256 46.3744 4.5847
lowerback 5.63209 -1.61283 -1.16837
upperback 2.78584 -2.09858 5.03593
thorax -0.0460293 -1.07206 5.99805
lowerneck -10.0224 2.79863 -8.32722
upperneck 42.3056 7.41083 1.18915
head 16.7039 2.28678 3.33296
rclavicle -4.05521e-014 -1.27222e-014
rhumerus -33.5604 -11.8518 -67.4574
rradius 39.4827
rwrist 18.1682
rhand -22.4579 3.08205
rfingers 7.12502
rthumb 3.96664 -26.8608
lclavicle -4.05521e-014 -1.27222e-014
lhumerus -31.7655 9.7868 87.8134
lradius 32.6354
lwrist -6.9053
lhand -12.5763 25.5662
lfingers 7.12502
lthumb 13.5016 55.1086
rfemur -40.9044 -5.98212 21.2123
rtibia 43.2158
rfoot -12.2955 -7.36688
rtoes 17.8394
lfemur -6.3434 0.899733 -31.0625
ltibia 33.8916
lfoot -17.8629 10.5658
ltoes -22.3983
79
root -6.07201 17.3461 0.188544 13.8525 46.2676 4.37317
lowerback 5.70867 -1.62614 -0.908109
upperback 2.90575 -2.10149 5.12453
thorax 0.0293345 -1.07296 5.94348
lowerneck -10.0194 2.79085 -8.26753
upperneck 42.2789 7.41626 1.08318
head 16.699 2.284 3.27496
rclavicle 1.11319e-014 -2.54444e-014
rhumerus -33.25 -12.0415 -67.4613
rradius 39.5757
rwrist 18.3338
rhand -22.5746 3.19828
rfingers 7.12502
rthumb 3.85389 -26.7466
lclavicle 1.11319e-014 -2.54444e-014
lhumerus -31.6903 9.2846 87.9661
lradius 33.0854
lwrist -7.08762
lhand -12.4956 25.4109
lfingers 7.12502
lthumb 13.5793 54.9481
rfemur -40.4425 -5.65368 21.2106
rtibia 43.0362
rfoot -12.6008 -7.41244
rtoes 17.7496
lfemur -7.29657 1.24464 -30.8124
ltibia 36.0134
lfoot -17.0948 9.79307
ltoes -23.1815
